<svg xmlns="http://www.w3.org/2000/svg" width="512" height="512" viewBox="0 0 450.4 450.4"><g xmlns="http://www.w3.org/2000/svg"><path d="M143.7 350.3c-26 0-47 21.1-47 47 0 26 21.1 47 47 47 26 0 47-21.1 47-47C190.7 371.4 169.6 350.3 143.7 350.3zM143.7 423.5c-14.4 0-26.1-11.7-26.1-26.1 0-14.4 11.7-26.1 26.1-26.1 14.4 0 26.1 11.7 26.1 26.1C169.8 411.8 158.1 423.5 143.7 423.5z" data-original="#000000"/><path d="M342.2 350.3c-26 0-47 21.1-47 47 0 26 21.1 47 47 47s47-21.1 47-47C389.2 371.4 368.2 350.3 342.2 350.3zM342.2 423.5c-14.4 0-26.1-11.7-26.1-26.1 0-14.4 11.7-26.1 26.1-26.1s26.1 11.7 26.1 26.1C368.3 411.8 356.6 423.5 342.2 423.5z" data-original="#000000"/><path d="M448.3 76c-2.2-2.4-5.2-3.9-8.4-4.2L99.8 67.2 90.4 38.4C83.8 19.2 65.8 6.2 45.5 6H10.4C4.7 6 0 10.7 0 16.5s4.7 10.4 10.4 10.4h35c11.4 0.3 21.4 7.5 25.1 18.3l66.4 200.1 -5.2 12c-5.8 15-4.1 31.9 4.7 45.5 8.7 13.3 23.3 21.5 39.2 21.9h203.2c5.8 0 10.4-4.7 10.4-10.4 0-5.8-4.7-10.4-10.4-10.4H175.5c-9-0.2-17.2-4.9-21.9-12.5 -4.7-7.5-5.7-16.8-2.6-25.1l4.2-9.4 220-23c24.2-2.7 44-20.2 49.6-43.9l25.1-105C451 81.9 450.4 78.5 448.3 76zM404.4 185.2c-3.4 15.2-16.3 26.5-31.9 27.7l-217.3 22.5L106.6 88.1l320.3 4.7L404.4 185.2z" data-original="#000000"/></g></svg>